<?xml version="1.0" encoding="utf-8"?>
<!-- Generator: Adobe Illustrator 19.0.0, SVG Export Plug-In . SVG Version: 6.00 Build 0)  -->
<svg xmlns="http://www.w3.org/2000/svg" xmlns:xlink="http://www.w3.org/1999/xlink" version="1.1" id="Layer_1" x="0px" y="0px" viewBox="0 2 98 98" style="enable-background:new 0 2 98 98;" xml:space="preserve" width="512" height="512">
<style type="text/css">
	.st0{fill:url(#SVGID_1_);}
</style>
<linearGradient id="SVGID_1_" gradientUnits="userSpaceOnUse" x1="49" y1="16.5" x2="49" y2="85.5">
	<stop offset="0" style="stop-color:#00EFD1"/>
	<stop offset="1" style="stop-color:#00ACEA"/>
</linearGradient>
<path class="st0" d="M83.5,16.5c-6.6,0-12,5.4-12,12c0,3.6,1.6,6.9,4.2,9.1l-10,19c-0.4,0-0.8-0.1-1.2-0.1c-2,0-3.9,0.5-5.6,1.4  L44.6,46c1.2-1.9,1.9-4.1,1.9-6.5c0-6.6-5.4-12-12-12s-12,5.4-12,12c0,3.5,1.5,6.6,3.9,8.8l-9,13.6c-0.9-0.2-1.9-0.4-2.8-0.4  c-6.6,0-12,5.4-12,12s5.4,12,12,12s12-5.4,12-12c0-3.5-1.5-6.6-3.9-8.8l9-13.6c0.9,0.2,1.9,0.4,2.8,0.4c2,0,3.9-0.5,5.6-1.4L54.4,62  c-1.2,1.9-1.9,4.1-1.9,6.5c0,6.6,5.4,12,12,12s12-5.4,12-12c0-4.1-2-7.7-5.2-9.8l9.7-18.4c0.8,0.2,1.6,0.3,2.4,0.3  c6.6,0,12-5.4,12-12S90.1,16.5,83.5,16.5z M14.5,79.5c-3.3,0-6-2.7-6-6s2.7-6,6-6s6,2.7,6,6S17.8,79.5,14.5,79.5z M28.5,39.5  c0-3.3,2.7-6,6-6s6,2.7,6,6s-2.7,6-6,6S28.5,42.8,28.5,39.5z M64.5,74.5c-3.3,0-6-2.7-6-6s2.7-6,6-6s6,2.7,6,6S67.8,74.5,64.5,74.5z   M83.5,34.5c-3.3,0-6-2.7-6-6s2.7-6,6-6s6,2.7,6,6S86.8,34.5,83.5,34.5z"/>
</svg>
